<svg width="200" height="200" viewBox="0 0 200 200" fill="none" xmlns="http://www.w3.org/2000/svg">
  <rect width="200" height="200" rx="24" fill="#8B5CF6"/>
  <path d="M50 40h100c4.4 0 8 3.6 8 8v80c0 4.4-3.6 8-8 8H50c-4.4 0-8-3.6-8-8V48c0-4.4 3.6-8 8-8z" fill="white"/>
  <path d="M60 60h80v4H60v-4zM60 72h60v4H60v-4zM60 84h80v4H60v-4zM60 96h50v4H60v-4zM60 108h70v4H60v-4zM60 120h40v4H60v-4z" fill="#8B5CF6"/>
  <text x="100" y="160" text-anchor="middle" fill="white" font-family="Arial, sans-serif" font-size="16" font-weight="bold">Farcaster Lore</text>
</svg> 