<svg width="1200" height="630" viewBox="0 0 1200 630" fill="none" xmlns="http://www.w3.org/2000/svg">
  <rect width="1200" height="630" fill="#8B5CF6"/>
  <rect x="100" y="100" width="400" height="300" rx="16" fill="white"/>
  <path d="M120 140h360v8H120v-8zM120 160h240v8H120v-8zM120 180h320v8H120v-8zM120 200h200v8H120v-8zM120 220h280v8H120v-8zM120 240h160v8H120v-8zM120 260h300v8H120v-8zM120 280h220v8H120v-8z" fill="#8B5CF6"/>
  
  <text x="600" y="480" text-anchor="middle" fill="white" font-family="Arial, sans-serif" font-size="48" font-weight="bold">Farcaster Lore</text>
  <text x="600" y="520" text-anchor="middle" fill="white" font-family="Arial, sans-serif" font-size="24">Explore GM Farcaster Casts</text>
  <text x="600" y="580" text-anchor="middle" fill="white" font-family="Arial, sans-serif" font-size="18">lore.gmfarcaster.com</text>
</svg> 